<svg xmlns="http://www.w3.org/2000/svg" width="187" height="43" viewBox="0 0 187 43">
    <g fill="none" fill-rule="evenodd">
        <g fill="#FFF">
            <g>
                <g>
                    <path d="M96.381 19.342c0 1.257-.838 5.447-5.762 5.447-5.029 0-5.762-4.295-5.762-5.447v-8.59c0-1.258.838-5.448 5.762-5.448 5.029 0 5.762 4.295 5.762 5.447v8.59zm4.61-14.143C99.732 2.789 97.218.066 91.875.066c-3.457 0-5.866 1.466-7.333 2.933v-1.99c0-.21-.21-.315-.314-.315h-4.715c-.21 0-.314.21-.314.314v39.81c0 .21.21.314.314.314h5.134c.21 0 .314-.21.314-.314V27.304c1.571 1.362 3.771 2.619 7.019 2.619 5.343 0 7.857-2.724 9.114-5.134 1.257-2.514 1.362-5.133 1.362-5.657v-8.066c-.105-.629-.21-3.353-1.467-5.867zM29.752 19.237c0 1.257.838 5.448 5.762 5.448 5.029 0 5.867-4.296 5.867-5.448v-8.59c0-1.258-.838-5.448-5.867-5.448-5.028 0-5.762 4.295-5.762 5.447v8.591zm-5.866-8.276c0-.524.104-3.143 1.466-5.657C26.714 2.894 29.648.17 35.514.17c5.867 0 8.8 2.724 10.162 5.134 1.467 2.514 1.467 5.133 1.467 5.657v8.066c0 .524-.105 3.143-1.467 5.658-1.362 2.41-4.19 5.134-10.162 5.134-5.866 0-8.8-2.725-10.162-5.134-1.466-2.515-1.466-5.134-1.466-5.658v-8.066zM74.486 1.008c0-.209-.105-.314-.314-.314h-5.134c-.21 0-.314.21-.314.314v18.23c0 1.256-.838 5.447-5.762 5.447-5.029 0-5.867-4.296-5.867-5.448V1.008c0-.209-.21-.314-.314-.314h-5.133c-.21 0-.315.21-.315.314v18.02c0 .523 0 3.142 1.362 5.657 1.257 2.41 3.772 5.133 9.115 5.133 1.78 0 3.247-.314 4.4-.943 1.152-.524 2.2-1.257 2.933-1.99v1.99c0 .21.21.314.314.314h4.715c.21 0 .314-.21.314-.314V1.008zM122.467 19.76c0 1.153-.84 5.134-5.657 5.134-4.82 0-5.658-3.98-5.658-5.133v-.42c0-1.152.839-5.133 5.658-5.133 4.818 0 5.657 3.981 5.657 5.134v.419zm5.447-9.114c0-2.304-1.152-7.647-6.286-9.742-5.029-2.096-11.628.21-13.723 1.047l-.42.21c-.208.105-.314.314-.208.524l1.465 4.19c.106.21.21.314.42.21.104 0 .104-.105.21-.105 1.99-1.048 7.124-2.724 10.267-1.257 3.142 1.466 2.828 4.714 2.828 5.133v.838c-1.467-1.048-3.562-2.095-6.601-2.2-5.342 0-7.857 2.62-9.113 4.82-1.257 2.409-1.363 4.923-1.363 5.342 0 .524.106 3.038 1.363 5.343 1.256 2.305 3.771 4.82 9.113 4.82 3.143 0 5.238-1.153 6.81-2.306v1.362c0 .21.21.314.315.314h4.505c.21 0 .314-.21.314-.314V10.751c.104 0 .104 0 .104-.105zM177.152 10.752c0 1.152-.838 5.133-5.762 5.238-5.029 0-5.762-4.086-5.762-5.238v-.315c0-1.152.84-5.133 5.762-5.238 5.03 0 5.762 4.086 5.762 5.238v.315zM185.848.275c-3.039-.104-4.924 1.153-6.182 2.515-1.675-1.467-4.294-2.62-8.276-2.62-5.867 0-8.799 2.62-10.16 4.925-1.469 2.409-1.469 4.923-1.469 5.447v.314c0 .524.105 3.039 1.468 5.448.628 1.048 1.572 2.095 2.934 3.038-2.202 1.257-4.19 3.562-4.19 7.648v2.2c0 .21.209.419.312.419h16.867c1.99 0 3.038 1.362 3.352 2.619.315 1.571-.21 3.667-2.933 5.132l-.21.106c-.209.105-.209.314-.103.524l2.305 4.084c.103.211.314.211.523.106 0 0 1.152-.733 1.572-.943.418-.21.732-.523 1.047-.838 2.934-2.724 3.458-6.39 2.828-9.325-.838-3.98-4.19-6.285-8.381-6.285h-11.629c.629-3.561 4.715-3.456 5.238-3.456h.63c5.867 0 8.8-2.62 10.161-4.924 1.468-2.41 1.468-4.924 1.468-5.448v-.524c0-.419 0-2.304-.944-4.295.733-.524 1.991-1.047 3.772-.943.209 0 .418-.21.418-.314V.799c0-.314-.21-.524-.418-.524zM22 23.742l-4.505-2.305c-.21-.105-.419 0-.524.21v.105c-.733 1.466-2.2 3.037-5.238 3.143-5.028 0-5.762-4.296-5.762-5.449v-8.59c0-1.257.839-5.448 5.762-5.448 3.038 0 4.61 1.677 5.238 3.143.105.106.21.314.42.314h.209L22 6.562c.21-.106.21-.316.105-.524-.105-.21-.21-.316-.21-.524C20.533 3.104 17.705.38 11.733.38c-5.866 0-8.8 2.723-10.162 5.134C.105 7.713 0 10.437 0 10.961v8.066c0 .524.105 3.143 1.467 5.657 1.362 2.41 4.19 5.135 10.162 5.135h.104c5.867 0 8.8-2.725 10.162-5.135l.315-.523c0-.104-.105-.314-.21-.42M154.42 5.199c-1.258-2.41-3.877-5.133-9.115-5.133-3.457 0-5.762 1.466-7.333 2.933v-1.99c0-.21-.21-.315-.314-.315h-4.715c-.21 0-.315.21-.315.314V28.98c0 .21.21.314.315.314h5.133c.21 0 .314-.21.314-.314V10.437c.106-1.467 1.153-5.133 5.762-5.238 5.03 0 5.867 4.295 5.867 5.448V28.98c0 .21.21.314.315.314h5.133c.209 0 .314-.21.314-.314V10.96c0-.523 0-3.247-1.362-5.761" transform="translate(-120 -13154) translate(0 13071) translate(120 83)"/>
                </g>
            </g>
        </g>
    </g>
</svg>
