<svg xmlns="http://www.w3.org/2000/svg" width="216" height="32" viewBox="0 0 216 32">
    <defs>
        <linearGradient id="wpjakc1z4a" x1="-1.038%" x2="100%" y1="49.996%" y2="50%">
            <stop offset="0%" stop-color="#FFF"/>
            <stop offset="33.826%" stop-color="#FFF" stop-opacity=".844"/>
            <stop offset="65.491%" stop-color="#FFF" stop-opacity=".763"/>
            <stop offset="92.831%" stop-color="#FFF" stop-opacity=".56"/>
            <stop offset="99.97%" stop-color="#FFF" stop-opacity=".3"/>
        </linearGradient>
        <linearGradient id="rwuuq9qmhb" x1="-1.038%" x2="100%" y1="49.999%" y2="50%">
            <stop offset="0%" stop-color="#FFF"/>
            <stop offset="33.826%" stop-color="#FFF" stop-opacity=".844"/>
            <stop offset="65.491%" stop-color="#FFF" stop-opacity=".763"/>
            <stop offset="92.831%" stop-color="#FFF" stop-opacity=".56"/>
            <stop offset="100%" stop-color="#FFF" stop-opacity=".3"/>
        </linearGradient>
        <linearGradient id="4curil7pkc" x1="-1.038%" x2="100%" y1="49.994%" y2="50%">
            <stop offset="0%" stop-color="#FFF"/>
            <stop offset="33.826%" stop-color="#FFF" stop-opacity=".844"/>
            <stop offset="67.466%" stop-color="#FFF" stop-opacity=".763"/>
            <stop offset="100%" stop-color="#FFF" stop-opacity=".435"/>
        </linearGradient>
        <linearGradient id="6fh458y70d" x1="0%" x2="100%" y1="50.006%" y2="50.006%">
            <stop offset="0%" stop-color="#FFF"/>
            <stop offset="100%" stop-color="#FFF" stop-opacity=".76"/>
        </linearGradient>
    </defs>
    <g fill="none" fill-rule="evenodd">
        <g fill-rule="nonzero">
            <g>
                <path fill="url(#wpjakc1z4a)" d="M34.212 7.842c6.58 0 11.382 4.627 11.382 11.055-.008.622-.06 1.243-.155 1.858H28.014c.192 4.275 2.66 6.94 6.386 7.004h.119c2.868 0 5.036-1.558 5.576-4.045h5.23C44.624 28.77 40.361 32 34.44 32c-7.164 0-11.73-4.747-11.73-12.1 0-7.155 4.722-12.058 11.5-12.058zM11.22.38c6.912.186 11.245 4.033 11.245 10.066 0 4.164-2.242 7.275-6.183 8.673l6.883 12.374h-5.81l-6.12-11.088H5.313v11.088H0V.381zm38.693 7.966L56.38 26.32v5.17h-3.564L44.455 8.348h5.458zm-15.55 3.74h-.11c-3.042.04-5.355 2.096-5.892 5.245h5.94l5.95.003c-.503-3.148-2.787-5.248-5.888-5.248zM10.72 4.995H5.314v10.898h5.166c.244 0 .495-.022.74-.022 3.704-.23 5.732-2.186 5.732-5.431s-2.05-5.193-5.75-5.424c-.227-.022-.478-.022-.74-.022z" transform="translate(-120 -34) translate(120 34)"/>
                <path fill="url(#rwuuq9qmhb)" d="M77.99 8c6.603 0 11.42 4.597 11.42 10.982-.008.618-.06 1.235-.155 1.847H71.777c.189 4.247 2.672 6.894 6.406 6.957h.119c2.873 0 5.048-1.547 5.593-4.018h5.24C88.439 28.791 84.163 32 78.225 32c-7.186 0-11.77-4.716-11.77-12.02C66.454 12.87 71.194 8 77.99 8zm23.138 0c6.328 0 10.1 3.478 10.1 9.357v14.126h-5.011v-4.136c-.828 2.13-2.647 3.63-5.089 4.276-.938.249-1.905.373-2.876.37-5.048 0-8.077-2.593-8.077-6.88 0-4.166 3.203-6.833 8.726-7.335l2.227-.203 4.97-.454v-.31c-.234-3.014-2.02-4.676-4.97-4.676-2.565 0-4.272 1.237-4.74 3.402H91.3c.505-4.716 4.194-7.538 9.828-7.538zm57.34-6.84v4.597c-3.885 0-6.097 3.904-6.09 10.862 0 6.876 2.175 10.624 6.098 10.624v4.639c-7.197 0-11.65-5.876-11.65-15.382 0-9.505 4.453-15.34 11.643-15.34zM119.49 0v31.498h-5.088V0h5.088zm16.8 1.16l.309.003c5.847.12 9.712 3.648 9.712 9.04 0 3.402-1.244 5.95-4.31 8.886l-6.139 5.713-2.227 2.094h13.592v4.602h-21.245v-3.752l10.021-9.728 1.875-1.824c2.171-2.142 2.913-3.597 2.913-5.835 0-2.862-1.748-4.602-4.58-4.602l-.24.005c-2.7.096-4.47 1.819-4.733 4.67h-5.434c.349-5.68 4.428-9.272 10.485-9.272zM67.448 8.5l-7.535 22.993h-3.533v-5.137l5.708-17.856h5.36zm38.69 12.55l-5.003.487-1.515.144c-2.68.229-4.235 1.506-4.235 3.36 0 1.854 1.4 2.9 3.886 2.9.627-.003 1.25-.085 1.856-.244 2.791-.684 4.818-3.085 5.01-5.939v-.709zM78.16 12.216h-.112c-3.05.04-5.37 2.082-5.905 5.21h5.939l5.98.004c-.506-3.128-2.796-5.214-5.902-5.214z" transform="translate(-120 -34) translate(120 34)"/>
                <path fill="url(#4curil7pkc)" d="M158.48 1.143c7.275 0 11.744 5.857 11.744 15.408 0 9.551-4.472 15.449-11.748 15.449v-4.659c4.008 0 6.186-3.765 6.186-10.671 0-6.988-2.23-10.91-6.182-10.91zm44.941.017v4.597c-3.886 0-6.098 3.904-6.09 10.862 0 6.876 2.174 10.624 6.098 10.624v4.639c-7.197 0-11.651-5.876-11.651-15.382 0-9.505 4.454-15.34 11.643-15.34zm-22.174-.017l.31.003c5.857.12 9.728 3.664 9.728 9.08 0 3.417-1.246 5.976-4.316 8.925l-6.123 5.738-2.231 2.104h13.588v4.621h-21.28v-3.768l10.038-9.77 1.877-1.833c2.175-2.151 2.919-3.613 2.919-5.86 0-2.875-1.751-4.622-4.592-4.622l-.24.004c-2.705.097-4.474 1.827-4.738 4.692h-5.442c.35-5.705 4.435-9.314 10.502-9.314z" transform="translate(-120 -34) translate(120 34)"/>
                <path fill="url(#6fh458y70d)" d="M203.432 1.143V5.76c3.952 0 6.183 3.92 6.183 10.909 0 6.906-2.179 10.671-6.186 10.671V32c7.275 0 11.748-5.898 11.748-15.449s-4.47-15.408-11.745-15.408z" transform="translate(-120 -34) translate(120 34)"/>
            </g>
        </g>
    </g>
</svg>
