<svg xmlns="http://www.w3.org/2000/svg" width="1017" height="153" viewBox="0 0 1017 153">
    <defs>
        <linearGradient id="687oplf4ra" x1="-1.038%" x2="100%" y1="49.996%" y2="50%">
            <stop offset="0%"/>
            <stop offset="33.826%" stop-opacity=".844"/>
            <stop offset="65.491%" stop-opacity=".763"/>
            <stop offset="92.831%" stop-opacity=".56"/>
            <stop offset="100%" stop-opacity=".3"/>
        </linearGradient>
        <linearGradient id="eijqs20olb" x1="-1.038%" x2="100%" y1="49.999%" y2="50%">
            <stop offset="0%"/>
            <stop offset="33.826%" stop-opacity=".844"/>
            <stop offset="65.491%" stop-opacity=".763"/>
            <stop offset="92.831%" stop-opacity=".56"/>
            <stop offset="100%" stop-opacity=".3"/>
        </linearGradient>
        <linearGradient id="3464fnxonc" x1="-1.038%" x2="100%" y1="49.994%" y2="50%">
            <stop offset="0%"/>
            <stop offset="33.826%" stop-opacity=".844"/>
            <stop offset="65.491%" stop-opacity=".763"/>
            <stop offset="100%" stop-opacity=".435"/>
        </linearGradient>
        <linearGradient id="4p0qq3pxfd" x1="0%" x2="100%" y1="50.006%" y2="50.006%">
            <stop offset="0%"/>
            <stop offset="100%" stop-opacity=".76"/>
        </linearGradient>
    </defs>
    <g fill="none" fill-rule="evenodd">
        <g fill-rule="nonzero">
            <g>
                <path fill="url(#687oplf4ra)" d="M161.65 37.951c31.088 0 53.783 21.867 53.783 52.236-.041 2.94-.287 5.875-.735 8.782h-82.334c.91 20.198 12.571 32.792 30.178 33.09h.56c13.55 0 23.796-7.359 26.349-19.11h24.705c-3.304 23.888-23.446 39.151-51.421 39.151-33.85 0-55.426-22.43-55.426-57.171 0-33.81 22.31-56.978 54.342-56.978zM53.014 2.7c32.66.878 53.135 19.057 53.135 47.564 0 19.671-10.595 34.372-29.216 40.976l32.52 58.471h-27.45l-28.92-52.393H25.109v52.393H0V2.7zm182.824 37.64l30.563 84.922v24.432h-16.838L210.048 40.34h25.79zm-73.47 17.67h-.524c-14.372.192-25.3 9.905-27.835 24.782h28.062l28.115.018c-2.378-14.877-13.166-24.8-27.818-24.8zM49.957 24.496h-24.85v51.498h24.409c1.154 0 2.343-.106 3.497-.106 17.502-1.088 27.083-10.327 27.083-25.66 0-15.334-9.686-24.538-27.17-25.627-1.067-.105-2.256-.105-3.497-.105z" transform="translate(-459 -403) translate(459 403)"/>
                <path fill="url(#eijqs20olb)" d="M748.765 6.38V28.2c-18.362 0-28.814 18.524-28.779 51.544 0 32.633 10.277 50.422 28.814 50.422v22.013c-34.005 0-55.05-27.884-55.05-72.996 0-45.113 21.045-72.804 55.015-72.804zM368.502 38.695c31.2 0 53.963 21.724 53.963 51.894-.041 2.922-.287 5.838-.737 8.725h-82.583c.894 20.067 12.627 32.578 30.27 32.875h.56c13.575 0 23.851-7.311 26.43-18.985h24.762c-3.297 23.731-23.5 38.895-51.56 38.895-33.952 0-55.61-22.283-55.61-56.798 0-33.59 22.395-56.606 54.505-56.606zm109.328 0c29.902 0 47.72 16.437 47.72 44.217v66.744h-23.676v-19.543c-3.91 10.068-12.504 17.152-24.044 20.206-4.433 1.173-9.003 1.76-13.591 1.745-23.85 0-38.161-12.25-38.161-32.508 0-19.683 15.134-32.282 41.23-34.655l10.522-.96 23.483-2.146V80.33c-1.105-14.239-9.54-22.09-23.483-22.09-12.118 0-20.185 5.845-22.395 16.07h-24.044c2.386-22.283 19.818-35.614 46.44-35.614zM564.588.9v148.827h-24.044V.9h24.044zm79.374 5.48l.85.004c27.971.332 46.5 17.058 46.5 42.729 0 16.071-5.874 28.111-20.36 41.984l-29.007 26.994-10.523 9.894h64.222v21.742H595.26v-17.729l47.351-45.962 8.857-8.62c10.259-10.12 13.767-16.996 13.767-27.57 0-13.523-8.26-21.742-21.642-21.742l-.404.002c-13.172.164-21.828 8.357-23.096 22.089H594.42c1.648-26.837 20.922-43.816 49.543-43.816zM318.696 41.068l-35.6 108.64H266.4v-24.272l26.972-84.368h25.324zm182.81 59.293l-23.64 2.304-7.156.68c-12.662 1.082-20.01 7.12-20.01 15.88 0 8.759 6.612 13.697 18.362 13.697 2.96-.01 5.907-.397 8.768-1.152 13.19-3.228 22.763-14.575 23.676-28.058v-3.35zM369.309 58.623h-.526c-14.416.192-25.376 9.842-27.902 24.621h28.06l28.253.018c-2.385-14.78-13.206-24.639-27.885-24.639z" transform="translate(-459 -403) translate(459 403)"/>
                <path fill="url(#3464fnxonc)" d="M961.165 6.38V28.2c-18.362 0-28.814 18.524-28.779 51.544 0 32.633 10.277 50.422 28.814 50.422v22.013c-34.005 0-55.05-27.884-55.05-72.996 0-45.113 21.045-72.804 55.015-72.804zM748.818 6.3c34.377 0 55.491 27.674 55.491 72.804S783.177 152.1 748.8 152.1v-22.013c18.936 0 29.23-17.789 29.23-50.423 0-33.019-10.54-51.544-29.212-51.544zm107.575 0l.852.005c28.017.333 46.576 17.133 46.576 42.917 0 16.141-5.884 28.234-20.394 42.167l-28.931 27.113-10.54 9.938h64.204v21.837H807.611v-17.806l47.43-46.164 8.87-8.658c10.276-10.165 13.79-17.07 13.79-27.691 0-13.583-8.274-21.838-21.695-21.838l-.405.003c-13.193.164-21.846 8.393-23.116 22.185h-25.717C808.42 23.353 827.725 6.3 856.393 6.3z" transform="translate(-459 -403) translate(459 403)"/>
                <path fill="url(#4p0qq3pxfd)" d="M961.218 6.3v21.82c18.672 0 29.212 18.525 29.212 51.544 0 32.634-10.294 50.423-29.23 50.423V152.1c34.377 0 55.509-27.867 55.509-72.996 0-45.13-21.114-72.804-55.491-72.804z" transform="translate(-459 -403) translate(459 403)"/>
            </g>
        </g>
    </g>
</svg>
